<svg width="21" height="20" viewBox="0 0 21 20" fill="none" xmlns="http://www.w3.org/2000/svg">
    <path d="M13.3265 16.8166C13.1074 16.8166 12.8798 16.8083 12.6353 16.7833C12.197 16.7499 11.6997 16.6666 11.1855 16.5416L9.76943 16.2083C5.88361 15.2999 4.61081 13.2666 5.52116 9.43326L6.34721 5.9416C6.53265 5.14993 6.75181 4.50826 7.02154 3.97493C8.47135 1.0166 11.2445 1.28326 13.2169 1.7416L14.6246 2.0666C16.597 2.52493 17.8445 3.24993 18.5441 4.35826C19.2353 5.4666 19.3449 6.8916 18.8813 8.8416L18.0553 12.3249C17.3304 15.3749 15.8215 16.8166 13.3265 16.8166ZM11.0591 2.70826C9.65142 2.70826 8.75794 3.28326 8.15947 4.5166C7.94031 4.9666 7.74644 5.52493 7.57786 6.22493L6.75181 9.7166C6.00162 12.8666 6.86982 14.2416 10.056 14.9916L11.4721 15.3249C11.9273 15.4333 12.3572 15.4999 12.7449 15.5333C15.0376 15.7583 16.1756 14.7666 16.8162 12.0416L17.6422 8.55826C18.0215 6.94993 17.971 5.82493 17.4652 5.0166C16.9595 4.20826 15.9648 3.65826 14.3296 3.28326L12.9219 2.95826C12.2223 2.7916 11.5986 2.70826 11.0591 2.70826Z" fill="#111828"/>
    <path d="M7.0222 18.5419C4.85592 18.5419 3.47354 17.2586 2.58848 14.5502L1.50956 11.2586C0.312621 7.59189 1.38312 5.52523 5.07507 4.34189L6.40687 3.91689C6.84519 3.78356 7.17392 3.69189 7.46894 3.64189C7.71339 3.59189 7.9494 3.68356 8.0927 3.87523C8.23599 4.06689 8.26128 4.31689 8.16013 4.53356C7.94097 4.97523 7.7471 5.53356 7.58695 6.23356L6.7609 9.72523C6.0107 12.8752 6.8789 14.2502 10.0651 15.0002L11.4812 15.3336C11.9364 15.4419 12.3663 15.5086 12.754 15.5419C13.0237 15.5669 13.2429 15.7502 13.3188 16.0086C13.3862 16.2669 13.285 16.5336 13.0659 16.6836C12.5096 17.0586 11.8099 17.3752 10.9249 17.6586L9.59308 18.0919C8.62373 18.3919 7.78082 18.5419 7.0222 18.5419ZM6.5586 5.18356L5.47124 5.53356C2.46205 6.49189 1.74557 7.89189 2.71492 10.8752L3.79385 14.1669C4.77162 17.1419 6.18772 17.8586 9.19691 16.9002L10.5287 16.4669C10.5793 16.4502 10.6214 16.4336 10.672 16.4169L9.77852 16.2086C5.8927 15.3002 4.6199 13.2669 5.53024 9.43356L6.3563 5.94189C6.4153 5.67523 6.48274 5.41689 6.5586 5.18356Z" fill="#111828"/>
    <path d="M14.7431 8.75864C14.6925 8.75864 14.6419 8.7503 14.5829 8.74197L10.4948 7.71697C10.1576 7.63364 9.95532 7.29197 10.0396 6.95864C10.1239 6.6253 10.4695 6.4253 10.8067 6.50864L14.8948 7.53364C15.232 7.61697 15.4342 7.95864 15.35 8.29197C15.2825 8.56697 15.0212 8.75864 14.7431 8.75864Z" fill="#111828"/>
    <path d="M12.2729 11.5749C12.2223 11.5749 12.1717 11.5666 12.1127 11.5582L9.65983 10.9416C9.32266 10.8582 9.12036 10.5166 9.20465 10.1832C9.28894 9.84991 9.63454 9.64991 9.9717 9.73325L12.4246 10.3499C12.7617 10.4332 12.964 10.7749 12.8797 11.1082C12.8123 11.3916 12.5594 11.5749 12.2729 11.5749Z" fill="#111828"/>
</svg>
